<svg xmlns="http://www.w3.org/2000/svg" width="1200" height="700" viewBox="0 0 1200 700"><rect width="1200" height="700" fill="#f8fafc"/><text x="50" y="70" font-family="Arial" font-size="34" font-weight="800" fill="#111827">Lead source performance</text><text x="50" y="105" font-family="Arial" font-size="18" fill="#4b5563">Identify the sources worth protecting and the sources needing review.</text><rect x="50" y="135" width="1100" height="245" rx="18" fill="#ffffff" stroke="#e5e7eb"/><g font-family="Arial" font-size="17"><text x="80" y="180" fill="#6b7280" font-weight="700">Lead Source</text><text x="335" y="180" fill="#6b7280" font-weight="700">Leads</text><text x="455" y="180" fill="#6b7280" font-weight="700">Demos</text><text x="575" y="180" fill="#6b7280" font-weight="700">Sales</text><text x="690" y="180" fill="#6b7280" font-weight="700">Revenue</text><text x="835" y="180" fill="#6b7280" font-weight="700">Demo Rate</text><text x="1000" y="180" fill="#6b7280" font-weight="700">NSLI</text><line x1="75" y1="200" x2="1120" y2="200" stroke="#e5e7eb"/><text x="80" y="235">Referral</text><text x="335" y="235">21</text><text x="455" y="235">17</text><text x="575" y="235">8</text><text x="690" y="235">$113,500</text><text x="835" y="235">81.0%</text><text x="1000" y="235">$5,405</text><text x="80" y="285">Partner Lead</text><text x="335" y="285">11</text><text x="455" y="285">10</text><text x="575" y="285">4</text><text x="690" y="285">$63,500</text><text x="835" y="285">90.9%</text><text x="1000" y="285">$5,773</text><text x="80" y="335">Paid Search</text><text x="335" y="335">13</text><text x="455" y="335">7</text><text x="575" y="335">2</text><text x="690" y="335">$29,500</text><text x="835" y="335">53.8%</text><text x="1000" y="335">$2,269</text></g><text x="50" y="435" font-family="Arial" font-size="26" font-weight="800" fill="#111827">NSLI by lead source</text><rect x="50" y="465" width="1100" height="170" rx="18" fill="#ffffff" stroke="#e5e7eb"/><rect x="90" y="510" width="760" height="22" fill="#1d4ed8" rx="6"/><rect x="90" y="550" width="710" height="22" fill="#1d4ed8" rx="6"/><rect x="90" y="590" width="295" height="22" fill="#1d4ed8" rx="6"/><g font-family="Arial" font-size="16" fill="#111827"><text x="870" y="528">Partner Lead — $5,773</text><text x="820" y="568">Referral — $5,405</text><text x="405" y="608">Paid Search — $2,269</text></g></svg>