<svg xmlns="http://www.w3.org/2000/svg" width="1200" height="700" viewBox="0 0 1200 700"><rect width="1200" height="700" fill="#f8fafc"/><text x="50" y="70" font-family="Arial" font-size="34" font-weight="800" fill="#111827">Rep performance</text><text x="50" y="105" font-family="Arial" font-size="18" fill="#4b5563">Compare revenue, conversion metrics, NSLI, and coaching opportunities by rep.</text><rect x="50" y="135" width="1100" height="245" rx="18" fill="#ffffff" stroke="#e5e7eb"/><g font-family="Arial" font-size="17"><text x="80" y="180" fill="#6b7280" font-weight="700">Rep</text><text x="335" y="180" fill="#6b7280" font-weight="700">Leads</text><text x="455" y="180" fill="#6b7280" font-weight="700">Demos</text><text x="575" y="180" fill="#6b7280" font-weight="700">Sales</text><text x="690" y="180" fill="#6b7280" font-weight="700">Revenue</text><text x="835" y="180" fill="#6b7280" font-weight="700">Close Rate</text><text x="1000" y="180" fill="#6b7280" font-weight="700">NSLI</text><line x1="75" y1="200" x2="1120" y2="200" stroke="#e5e7eb"/><text x="80" y="235" fill="#111827">Alex Carter</text><text x="335" y="235">22</text><text x="455" y="235">18</text><text x="575" y="235">8</text><text x="690" y="235">$120,500</text><text x="835" y="235">44.4%</text><text x="1000" y="235">$5,477</text><text x="80" y="285">Jordan Lee</text><text x="335" y="285">28</text><text x="455" y="285">21</text><text x="575" y="285">8</text><text x="690" y="285">$106,000</text><text x="835" y="285">38.1%</text><text x="1000" y="285">$3,786</text><text x="80" y="335">Morgan Reed</text><text x="335" y="335">29</text><text x="455" y="335">16</text><text x="575" y="335">5</text><text x="690" y="335">$77,000</text><text x="835" y="335">31.3%</text><text x="1000" y="335">$2,655</text></g><text x="50" y="435" font-family="Arial" font-size="26" font-weight="800" fill="#111827">Revenue by rep</text><rect x="50" y="465" width="1100" height="170" rx="18" fill="#ffffff" stroke="#e5e7eb"/><rect x="90" y="510" width="780" height="22" fill="#1d4ed8" rx="6"/><rect x="90" y="550" width="690" height="22" fill="#1d4ed8" rx="6"/><rect x="90" y="590" width="500" height="22" fill="#1d4ed8" rx="6"/><g font-family="Arial" font-size="16" fill="#111827"><text x="890" y="528">Alex Carter — $120,500</text><text x="800" y="568">Jordan Lee — $106,000</text><text x="610" y="608">Morgan Reed — $77,000</text></g></svg>